<?xml version="1.0" encoding="UTF-8" standalone="no"?>
<!-- Generator: Adobe Illustrator 16.0.0, SVG Export Plug-In . SVG Version: 6.00 Build 0)  -->

<svg
   xmlns:dc="http://purl.org/dc/elements/1.1/"
   xmlns:cc="http://creativecommons.org/ns#"
   xmlns:rdf="http://www.w3.org/1999/02/22-rdf-syntax-ns#"
   xmlns:svg="http://www.w3.org/2000/svg"
   xmlns="http://www.w3.org/2000/svg"
   xmlns:sodipodi="http://sodipodi.sourceforge.net/DTD/sodipodi-0.dtd"
   xmlns:inkscape="http://www.inkscape.org/namespaces/inkscape"
   version="1.1"
   id="Capa_1"
   x="0px"
   y="0px"
   width="363.91101"
   height="485.21201"
   viewBox="0 0 363.911 485.212"
   xml:space="preserve"
   sodipodi:docname="Event-21.svg"
   inkscape:version="0.92.2 (5c3e80d, 2017-08-06)"><metadata
     id="metadata41"><rdf:RDF><cc:Work
         rdf:about=""><dc:format>image/svg+xml</dc:format><dc:type
           rdf:resource="http://purl.org/dc/dcmitype/StillImage" /><dc:title></dc:title></cc:Work></rdf:RDF></metadata><defs
     id="defs39"><inkscape:path-effect
       effect="spiro"
       id="path-effect1172"
       is_visible="true" /><inkscape:path-effect
       effect="bspline"
       id="path-effect1168"
       is_visible="true"
       weight="33.333333"
       steps="2"
       helper_size="0"
       apply_no_weight="true"
       apply_with_weight="true"
       only_selected="false" /><inkscape:path-effect
       effect="bspline"
       id="path-effect5312"
       is_visible="true"
       weight="33.333333"
       steps="2"
       helper_size="0"
       apply_no_weight="true"
       apply_with_weight="true"
       only_selected="false" /><inkscape:path-effect
       effect="bspline"
       id="path-effect5308"
       is_visible="true"
       weight="33.333333"
       steps="2"
       helper_size="0"
       apply_no_weight="true"
       apply_with_weight="true"
       only_selected="false" /><inkscape:path-effect
       effect="bspline"
       id="path-effect5304"
       is_visible="true"
       weight="33.333333"
       steps="2"
       helper_size="0"
       apply_no_weight="true"
       apply_with_weight="true"
       only_selected="false" /><inkscape:perspective
       sodipodi:type="inkscape:persp3d"
       inkscape:vp_x="0 : 242.606 : 1"
       inkscape:vp_y="0 : 1000 : 0"
       inkscape:vp_z="363.911 : 242.606 : 1"
       inkscape:persp3d-origin="181.9555 : 161.73733 : 1"
       id="perspective4672" /></defs><sodipodi:namedview
     pagecolor="#ffffff"
     bordercolor="#666666"
     borderopacity="1"
     objecttolerance="10"
     gridtolerance="10"
     guidetolerance="10"
     inkscape:pageopacity="0"
     inkscape:pageshadow="2"
     inkscape:window-width="1868"
     inkscape:window-height="971"
     id="namedview37"
     showgrid="false"
     showguides="true"
     inkscape:zoom="0.5"
     inkscape:cx="-348.40587"
     inkscape:cy="57.554741"
     inkscape:window-x="25"
     inkscape:window-y="47"
     inkscape:window-maximized="0"
     inkscape:current-layer="Capa_1"
     fit-margin-top="0"
     fit-margin-left="0"
     fit-margin-right="0"
     fit-margin-bottom="0"
     inkscape:measure-start="0,0"
     inkscape:measure-end="0,0" /><g
     id="g4"
     transform="translate(-60.651)"
     style="fill:#5d536c;fill-opacity:1"><path
       d="M 242.606,0 C 142.124,0 60.651,81.473 60.651,181.955 c 0,100.482 151.631,303.257 181.956,303.257 30.326,0 181.955,-202.775 181.955,-303.257 C 424.562,81.473 343.089,0 242.606,0 Z m 0,303.257 c -66.9,0 -121.302,-54.433 -121.302,-121.302 0,-66.869 54.402,-121.304 121.302,-121.304 66.902,0 121.302,54.435 121.302,121.304 0,66.869 -54.399,121.302 -121.302,121.302 z"
       id="path2"
       inkscape:connector-curvature="0"
       style="fill:#5d536c;fill-opacity:1" /></g><circle
     style="fill:#ffffff;stroke-width:0.63968122"
     id="path45"
     cx="181.89999"
     cy="182.16861"
     r="140" /><path
     style="fill:#5d536c;fill-opacity:1;stroke:none;stroke-width:1px;stroke-linecap:butt;stroke-linejoin:miter;stroke-opacity:1"
     d="m 114.16495,189.91252 c -8.48147,7.38076 -13.05983,18.8978 -12.37689,30.1203 0.68293,11.2225 6.48387,21.95218 15.23904,29.00611 8.75516,7.05394 20.28942,10.43095 31.50516,9.64482 11.21575,-0.78614 22.03347,-5.64114 30.37773,-13.17668 8.23232,-7.43445 14.0067,-17.25339 18.20446,-27.52086 4.19776,-10.26747 6.92392,-21.06244 9.90719,-31.74617 2.98327,-10.68374 6.26753,-21.37049 11.4768,-31.16363 5.20927,-9.79314 12.4928,-18.72834 22.04659,-24.36457 5.35185,-3.15731 11.40152,-5.28998 15.98969,-9.48039 2.29408,-2.09521 4.18131,-4.71924 5.01398,-7.71246 0.41633,-1.49661 0.5635,-3.07331 0.37398,-4.61515 -0.18951,-1.54183 -0.71987,-3.04729 -1.58658,-4.33647 -0.90478,-1.3458 -2.16602,-2.4402 -3.59641,-3.20426 -1.43039,-0.76405 -3.02643,-1.20186 -4.64218,-1.34019 -3.23151,-0.27666 -6.48114,0.63813 -9.36447,2.12327 -5.76666,2.97026 -10.12385,8.07257 -15.47629,11.73703 -7.05926,4.833 -15.5504,6.98486 -23.7681,9.36406 -8.2177,2.3792 -16.62967,5.23151 -22.88228,11.07069 -4.75219,4.43796 -7.9055,10.28265 -10.95002,16.02805 -3.04453,5.74541 -6.14314,11.60951 -10.82014,16.12664 -5.97318,5.76901 -13.98206,8.83798 -21.77018,11.71993 -8.08941,2.99344 -16.39434,6.05763 -22.90108,11.71993 z"
     id="path1170"
     inkscape:connector-curvature="0"
     inkscape:path-effect="#path-effect1172"
     inkscape:original-d="m 114.16495,189.91252 c -7.63484,3.90785 43.16449,37.06185 64.74504,55.59455 21.58055,18.53273 41.09116,-76.53135 61.63504,-114.79523 20.54389,-38.263879 13.19518,-17.43085 19.79107,-26.14447 6.59588,-8.713621 -22.05178,6.20936 -33.07935,9.31585 -11.02759,3.10649 -31.09912,13.62197 -46.65038,20.43475 -15.55125,6.81279 -14.51231,21.43526 -21.77016,32.15469 -7.25787,10.71943 -14.51232,7.81209 -21.77018,11.71993 -7.25785,3.90785 -15.26626,7.81208 -22.90108,11.71993 z" /></svg>