<?xml version="1.0" encoding="UTF-8" standalone="no"?>
<!-- Generator: Adobe Illustrator 16.0.0, SVG Export Plug-In . SVG Version: 6.00 Build 0)  -->

<svg
   xmlns:dc="http://purl.org/dc/elements/1.1/"
   xmlns:cc="http://creativecommons.org/ns#"
   xmlns:rdf="http://www.w3.org/1999/02/22-rdf-syntax-ns#"
   xmlns:svg="http://www.w3.org/2000/svg"
   xmlns="http://www.w3.org/2000/svg"
   xmlns:sodipodi="http://sodipodi.sourceforge.net/DTD/sodipodi-0.dtd"
   xmlns:inkscape="http://www.inkscape.org/namespaces/inkscape"
   version="1.1"
   id="Capa_1"
   x="0px"
   y="0px"
   width="363.91101"
   height="485.21201"
   viewBox="0 0 363.911 485.212"
   xml:space="preserve"
   sodipodi:docname="Event-27.svg"
   inkscape:version="0.92.2 (5c3e80d, 2017-08-06)"><metadata
     id="metadata41"><rdf:RDF><cc:Work
         rdf:about=""><dc:format>image/svg+xml</dc:format><dc:type
           rdf:resource="http://purl.org/dc/dcmitype/StillImage" /><dc:title></dc:title></cc:Work></rdf:RDF></metadata><defs
     id="defs39"><inkscape:path-effect
       effect="spiro"
       id="path-effect1346"
       is_visible="true" /><inkscape:path-effect
       effect="spiro"
       id="path-effect1338"
       is_visible="true" /><inkscape:path-effect
       effect="spiro"
       id="path-effect1334"
       is_visible="true" /><inkscape:path-effect
       effect="spiro"
       id="path-effect1172"
       is_visible="true" /><inkscape:path-effect
       effect="bspline"
       id="path-effect1168"
       is_visible="true"
       weight="33.333333"
       steps="2"
       helper_size="0"
       apply_no_weight="true"
       apply_with_weight="true"
       only_selected="false" /><inkscape:path-effect
       effect="bspline"
       id="path-effect5312"
       is_visible="true"
       weight="33.333333"
       steps="2"
       helper_size="0"
       apply_no_weight="true"
       apply_with_weight="true"
       only_selected="false" /><inkscape:path-effect
       effect="bspline"
       id="path-effect5308"
       is_visible="true"
       weight="33.333333"
       steps="2"
       helper_size="0"
       apply_no_weight="true"
       apply_with_weight="true"
       only_selected="false" /><inkscape:path-effect
       effect="bspline"
       id="path-effect5304"
       is_visible="true"
       weight="33.333333"
       steps="2"
       helper_size="0"
       apply_no_weight="true"
       apply_with_weight="true"
       only_selected="false" /><inkscape:perspective
       sodipodi:type="inkscape:persp3d"
       inkscape:vp_x="0 : 242.606 : 1"
       inkscape:vp_y="0 : 1000 : 0"
       inkscape:vp_z="363.911 : 242.606 : 1"
       inkscape:persp3d-origin="181.9555 : 161.73733 : 1"
       id="perspective4672" /></defs><sodipodi:namedview
     pagecolor="#ffffff"
     bordercolor="#666666"
     borderopacity="1"
     objecttolerance="10"
     gridtolerance="10"
     guidetolerance="10"
     inkscape:pageopacity="0"
     inkscape:pageshadow="2"
     inkscape:window-width="1868"
     inkscape:window-height="971"
     id="namedview37"
     showgrid="false"
     showguides="false"
     inkscape:zoom="2"
     inkscape:cx="144.63115"
     inkscape:cy="219.61839"
     inkscape:window-x="25"
     inkscape:window-y="47"
     inkscape:window-maximized="0"
     inkscape:current-layer="Capa_1"
     fit-margin-top="0"
     fit-margin-left="0"
     fit-margin-right="0"
     fit-margin-bottom="0"
     inkscape:measure-start="0,0"
     inkscape:measure-end="0,0" /><g
     id="g4"
     transform="translate(-60.651)"
     style="fill:#5fbcd3;fill-opacity:1"><path
       d="M 242.606,0 C 142.124,0 60.651,81.473 60.651,181.955 c 0,100.482 151.631,303.257 181.956,303.257 30.326,0 181.955,-202.775 181.955,-303.257 C 424.562,81.473 343.089,0 242.606,0 Z m 0,303.257 c -66.9,0 -121.302,-54.433 -121.302,-121.302 0,-66.869 54.402,-121.304 121.302,-121.304 66.902,0 121.302,54.435 121.302,121.304 0,66.869 -54.399,121.302 -121.302,121.302 z"
       id="path2"
       inkscape:connector-curvature="0"
       style="fill:#5fbcd3;fill-opacity:1" /></g><ellipse
     style="fill:#ffffff;stroke-width:0.63968122"
     id="path45"
     cx="181.89999"
     cy="182.16861"
     r="140" /><ellipse
     style="fill:#5fbcd3;fill-opacity:1;stroke:none;stroke-width:5;stroke-miterlimit:4;stroke-dasharray:none;stroke-opacity:1"
     id="path1342"
     cx="180.95"
     cy="202.72301"
     rx="94.949997"
     ry="35" /><path
     style="fill:#ffffff;fill-opacity:1;stroke:none;stroke-width:1px;stroke-linecap:butt;stroke-linejoin:miter;stroke-opacity:1"
     d="m 140.71643,155.95716 c 1.73187,3.17771 4.89224,5.27179 7.91762,7.25781 4.77763,3.13629 9.54356,6.33554 14.7122,8.77423 5.16864,2.43869 10.80466,4.10597 16.51839,3.98193 8.09401,-0.17571 15.94697,-4.07308 21.33358,-10.11695 1.27206,-1.42727 2.42556,-2.98527 3.18859,-4.73828 0.76302,-1.753 1.11903,-3.71883 0.77022,-5.59861 -0.30932,-1.66698 -1.16316,-3.20755 -2.30563,-4.46026 -1.14247,-1.2527 -2.56529,-2.22842 -4.08269,-2.98473 -3.0348,-1.51262 -6.41292,-2.15792 -9.66685,-3.11183 -5.20684,-1.52642 -10.13458,-3.85914 -15.18553,-5.84134 -5.05095,-1.98219 -10.33364,-3.63399 -15.75928,-3.69411 -2.71282,-0.0301 -5.44235,0.34518 -8.00026,1.24929 -2.5579,0.90411 -4.94138,2.34676 -6.8247,4.29956 -1.88331,1.9528 -3.25225,4.42426 -3.76624,7.08811 -0.51398,2.66386 -0.14772,5.51301 1.15058,7.89518 z"
     id="path1344"
     inkscape:connector-curvature="0"
     inkscape:path-effect="#path-effect1346"
     inkscape:original-d="m 140.71643,155.95716 c -16.12948,3.66656 6.15915,7.62337 7.91762,7.25781 1.75847,-0.36556 34.0211,19.98468 31.23059,12.75616 -5.48597,-14.21082 19.06193,-6.89226 21.33358,-10.11695 2.27165,-3.2247 -2.19834,-6.74564 3.95881,-10.33689 6.15714,-3.59125 -10.70245,-7.03888 -16.05517,-10.55682 -5.35272,-3.51794 -32.25595,7.33013 -48.38543,10.99669 z"
     sodipodi:nodetypes="ssscsss" /><ellipse
     style="fill:#ffffff;fill-opacity:1;stroke:none;stroke-width:5;stroke-miterlimit:4;stroke-dasharray:none;stroke-opacity:1"
     id="path1348"
     cx="182"
     cy="201.46631"
     rx="60"
     ry="6.5317001" /></svg>